<svg xmlns="http://www.w3.org/2000/svg" width="32.3" height="28.5" viewBox="0 0 32.3 28.5">
  <g id="Group_78" data-name="Group 78" transform="translate(-319 -573)">
    <path id="Path_377" data-name="Path 377" d="M322.956,577A3.948,3.948,0,0,0,319,580.956V594.71a3.948,3.948,0,0,0,3.956,3.957h7.455V590.2h-2.24v-3.049h2.24v-2.606c0-2.047,1.323-3.926,4.372-3.926a18.576,18.576,0,0,1,2.147.118l-.072,2.848s-.931-.009-1.947-.009c-1.1,0-1.275.507-1.275,1.348v2.227h3.309L336.8,590.2h-3.165v8.471h3.074a3.948,3.948,0,0,0,3.957-3.956V580.956A3.948,3.948,0,0,0,336.71,577Z" fill="#fff"/>
    <path id="Path_378" data-name="Path 378" d="M351,573v28.5" fill="none" stroke="#1393ff" stroke-width="0.6"/>
  </g>
</svg>
