<svg xmlns="http://www.w3.org/2000/svg" width="33.05" height="28.5" viewBox="0 0 33.05 28.5">
  <g id="Group_79" data-name="Group 79" transform="translate(-600.25 -573)">
    <path id="Path_380" data-name="Path 380" d="M622.531,586.3h-.906v-.047H611.5v4.5h6.358a6.755,6.755,0,1,1-1.88-7.291l3.182-3.182a11.239,11.239,0,1,0,3.59,8.223A11.335,11.335,0,0,0,622.531,586.3Z" fill="#fff"/>
    <path id="Path_381" data-name="Path 381" d="M601.547,583.264l3.7,2.71a6.736,6.736,0,0,1,10.734-2.515l3.182-3.182a11.228,11.228,0,0,0-17.613,2.987Z" fill="#fff"/>
    <path id="Path_382" data-name="Path 382" d="M611.5,599.75a11.2,11.2,0,0,0,7.543-2.921l-3.482-2.946a6.733,6.733,0,0,1-10.408-3.1l-3.668,2.827A11.242,11.242,0,0,0,611.5,599.75Z" fill="#fff"/>
    <path id="Path_383" data-name="Path 383" d="M622.531,586.3h-.906v-.047H611.5v4.5h6.358a6.776,6.776,0,0,1-2.3,3.134h0l3.482,2.946a10.885,10.885,0,0,0,3.707-8.329A11.335,11.335,0,0,0,622.531,586.3Z" fill="#fff"/>
    <path id="Path_384" data-name="Path 384" d="M633,573v28.5" fill="none" stroke="#ff6063" stroke-width="0.6"/>
  </g>
</svg>
